<mxfile host="app.diagrams.net" agent="Mozilla/5.0 (Windows NT 10.0; Win64; x64) AppleWebKit/537.36 (KHTML, like Gecko) Chrome/131.0.0.0 Safari/537.36" version="25.0.3">
  <diagram name="第 1 页" id="AUvHnZDIItohH6egJobj">
    <mxGraphModel dx="1789" dy="700" grid="1" gridSize="10" guides="1" tooltips="1" connect="1" arrows="1" fold="1" page="1" pageScale="1" pageWidth="827" pageHeight="1169" math="0" shadow="0">
      <root>
        <mxCell id="0" />
        <mxCell id="1" parent="0" />
        <mxCell id="qGcrRXvkYBeC9DR_U5yj-5" value="" style="rounded=0;whiteSpace=wrap;html=1;" vertex="1" parent="1">
          <mxGeometry x="60" y="150" width="760" height="120" as="geometry" />
        </mxCell>
        <mxCell id="qGcrRXvkYBeC9DR_U5yj-1" value="vipapp" style="rounded=0;whiteSpace=wrap;html=1;" vertex="1" parent="1">
          <mxGeometry x="70" y="182.5" width="90" height="47.5" as="geometry" />
        </mxCell>
        <mxCell id="qGcrRXvkYBeC9DR_U5yj-2" value="大麦盈利分析" style="rounded=0;whiteSpace=wrap;html=1;" vertex="1" parent="1">
          <mxGeometry x="170" y="181.25" width="120" height="50" as="geometry" />
        </mxCell>
        <mxCell id="qGcrRXvkYBeC9DR_U5yj-3" value="大管报预实分析" style="rounded=0;whiteSpace=wrap;html=1;" vertex="1" parent="1">
          <mxGeometry x="390" y="182.5" width="120" height="50" as="geometry" />
        </mxCell>
        <mxCell id="qGcrRXvkYBeC9DR_U5yj-4" value="成本分层看板" style="rounded=0;whiteSpace=wrap;html=1;" vertex="1" parent="1">
          <mxGeometry x="530" y="182.5" width="120" height="50" as="geometry" />
        </mxCell>
        <mxCell id="qGcrRXvkYBeC9DR_U5yj-6" value="应用" style="text;html=1;align=center;verticalAlign=middle;whiteSpace=wrap;rounded=0;" vertex="1" parent="1">
          <mxGeometry x="-10" y="192.5" width="60" height="30" as="geometry" />
        </mxCell>
        <mxCell id="qGcrRXvkYBeC9DR_U5yj-7" value="刑天PL月度看板" style="rounded=0;whiteSpace=wrap;html=1;" vertex="1" parent="1">
          <mxGeometry x="678.75" y="182.5" width="120" height="50" as="geometry" />
        </mxCell>
        <mxCell id="qGcrRXvkYBeC9DR_U5yj-8" value="新增+迭代" style="rounded=0;whiteSpace=wrap;html=1;" vertex="1" parent="1">
          <mxGeometry x="60" y="280" width="760" height="70" as="geometry" />
        </mxCell>
        <mxCell id="qGcrRXvkYBeC9DR_U5yj-11" value="收入+费用集成" style="text;html=1;align=center;verticalAlign=middle;whiteSpace=wrap;rounded=0;" vertex="1" parent="1">
          <mxGeometry x="-40" y="300" width="90" height="30" as="geometry" />
        </mxCell>
        <mxCell id="qGcrRXvkYBeC9DR_U5yj-12" value="" style="rounded=0;whiteSpace=wrap;html=1;" vertex="1" parent="1">
          <mxGeometry x="60" y="360" width="770" height="460" as="geometry" />
        </mxCell>
        <mxCell id="qGcrRXvkYBeC9DR_U5yj-13" value="" style="rounded=0;whiteSpace=wrap;html=1;" vertex="1" parent="1">
          <mxGeometry x="90" y="402.5" width="180" height="367.5" as="geometry" />
        </mxCell>
        <mxCell id="qGcrRXvkYBeC9DR_U5yj-10" value="收入" style="text;html=1;align=center;verticalAlign=middle;whiteSpace=wrap;rounded=0;" vertex="1" parent="1">
          <mxGeometry x="148.75" y="372.5" width="60" height="30" as="geometry" />
        </mxCell>
        <mxCell id="qGcrRXvkYBeC9DR_U5yj-14" value="收入费用+规则分摊" style="text;html=1;align=center;verticalAlign=middle;whiteSpace=wrap;rounded=0;" vertex="1" parent="1">
          <mxGeometry x="-70" y="582.5" width="120" height="30" as="geometry" />
        </mxCell>
        <mxCell id="qGcrRXvkYBeC9DR_U5yj-15" value="费控明细分析" style="rounded=0;whiteSpace=wrap;html=1;" vertex="1" parent="1">
          <mxGeometry x="300" y="181.25" width="80" height="48.75" as="geometry" />
        </mxCell>
        <mxCell id="qGcrRXvkYBeC9DR_U5yj-20" style="edgeStyle=orthogonalEdgeStyle;rounded=0;orthogonalLoop=1;jettySize=auto;html=1;exitX=0.5;exitY=1;exitDx=0;exitDy=0;entryX=0.5;entryY=0;entryDx=0;entryDy=0;" edge="1" parent="1" source="qGcrRXvkYBeC9DR_U5yj-16" target="qGcrRXvkYBeC9DR_U5yj-17">
          <mxGeometry relative="1" as="geometry" />
        </mxCell>
        <mxCell id="qGcrRXvkYBeC9DR_U5yj-16" value="日度线上化一层" style="rounded=0;whiteSpace=wrap;html=1;" vertex="1" parent="1">
          <mxGeometry x="127.5" y="422.5" width="102.5" height="37.5" as="geometry" />
        </mxCell>
        <mxCell id="qGcrRXvkYBeC9DR_U5yj-21" style="edgeStyle=orthogonalEdgeStyle;rounded=0;orthogonalLoop=1;jettySize=auto;html=1;exitX=0.5;exitY=1;exitDx=0;exitDy=0;entryX=0.5;entryY=0;entryDx=0;entryDy=0;" edge="1" parent="1" source="qGcrRXvkYBeC9DR_U5yj-17" target="qGcrRXvkYBeC9DR_U5yj-18">
          <mxGeometry relative="1" as="geometry" />
        </mxCell>
        <mxCell id="qGcrRXvkYBeC9DR_U5yj-17" value="月度一体化二层" style="rounded=0;whiteSpace=wrap;html=1;" vertex="1" parent="1">
          <mxGeometry x="127.5" y="482.5" width="102.5" height="37.5" as="geometry" />
        </mxCell>
        <mxCell id="qGcrRXvkYBeC9DR_U5yj-18" value="月度精卫兜底三层" style="rounded=0;whiteSpace=wrap;html=1;" vertex="1" parent="1">
          <mxGeometry x="127.5" y="542.5" width="105" height="40" as="geometry" />
        </mxCell>
        <mxCell id="qGcrRXvkYBeC9DR_U5yj-19" value="" style="rounded=0;whiteSpace=wrap;html=1;" vertex="1" parent="1">
          <mxGeometry x="340" y="390" width="470" height="380" as="geometry" />
        </mxCell>
        <mxCell id="qGcrRXvkYBeC9DR_U5yj-22" value="费用" style="text;html=1;align=center;verticalAlign=middle;whiteSpace=wrap;rounded=0;" vertex="1" parent="1">
          <mxGeometry x="540" y="360" width="60" height="30" as="geometry" />
        </mxCell>
        <mxCell id="qGcrRXvkYBeC9DR_U5yj-23" value="" style="rounded=0;whiteSpace=wrap;html=1;" vertex="1" parent="1">
          <mxGeometry x="678.75" y="590" width="121.25" height="130" as="geometry" />
        </mxCell>
        <mxCell id="qGcrRXvkYBeC9DR_U5yj-24" value="履约费用" style="text;html=1;align=center;verticalAlign=middle;whiteSpace=wrap;rounded=0;" vertex="1" parent="1">
          <mxGeometry x="700" y="565" width="60" height="30" as="geometry" />
        </mxCell>
        <mxCell id="qGcrRXvkYBeC9DR_U5yj-25" value="" style="rounded=0;whiteSpace=wrap;html=1;" vertex="1" parent="1">
          <mxGeometry x="360" y="432.5" width="430" height="117.5" as="geometry" />
        </mxCell>
        <mxCell id="qGcrRXvkYBeC9DR_U5yj-26" value="履约以下费用" style="text;html=1;align=center;verticalAlign=middle;whiteSpace=wrap;rounded=0;" vertex="1" parent="1">
          <mxGeometry x="520" y="392.5" width="74.75" height="30" as="geometry" />
        </mxCell>
        <mxCell id="qGcrRXvkYBeC9DR_U5yj-29" value="营销" style="rounded=0;whiteSpace=wrap;html=1;" vertex="1" parent="1">
          <mxGeometry x="370" y="440" width="90" height="47.5" as="geometry" />
        </mxCell>
        <mxCell id="qGcrRXvkYBeC9DR_U5yj-30" value="收入分成" style="rounded=0;whiteSpace=wrap;html=1;" vertex="1" parent="1">
          <mxGeometry x="470" y="495" width="90" height="47.5" as="geometry" />
        </mxCell>
        <mxCell id="qGcrRXvkYBeC9DR_U5yj-31" value="设计拍摄费" style="rounded=0;whiteSpace=wrap;html=1;" vertex="1" parent="1">
          <mxGeometry x="370" y="495" width="90" height="47.5" as="geometry" />
        </mxCell>
        <mxCell id="qGcrRXvkYBeC9DR_U5yj-32" value="产技项目人工" style="rounded=0;whiteSpace=wrap;html=1;" vertex="1" parent="1">
          <mxGeometry x="470" y="440" width="90" height="47.5" as="geometry" />
        </mxCell>
        <mxCell id="qGcrRXvkYBeC9DR_U5yj-33" value="" style="rounded=0;whiteSpace=wrap;html=1;" vertex="1" parent="1">
          <mxGeometry x="360" y="590" width="300" height="130" as="geometry" />
        </mxCell>
        <mxCell id="qGcrRXvkYBeC9DR_U5yj-34" value="产品成本" style="text;html=1;align=center;verticalAlign=middle;whiteSpace=wrap;rounded=0;" vertex="1" parent="1">
          <mxGeometry x="455.25" y="560" width="74.75" height="30" as="geometry" />
        </mxCell>
        <mxCell id="qGcrRXvkYBeC9DR_U5yj-35" value="采购成本" style="rounded=0;whiteSpace=wrap;html=1;" vertex="1" parent="1">
          <mxGeometry x="370" y="610" width="90" height="47.5" as="geometry" />
        </mxCell>
        <mxCell id="qGcrRXvkYBeC9DR_U5yj-36" value="头程运费" style="rounded=0;whiteSpace=wrap;html=1;" vertex="1" parent="1">
          <mxGeometry x="470" y="610" width="70" height="47.5" as="geometry" />
        </mxCell>
        <mxCell id="qGcrRXvkYBeC9DR_U5yj-37" value="TC运费" style="rounded=0;whiteSpace=wrap;html=1;" vertex="1" parent="1">
          <mxGeometry x="555" y="610" width="70" height="47.5" as="geometry" />
        </mxCell>
        <mxCell id="qGcrRXvkYBeC9DR_U5yj-38" value="项目外包费" style="rounded=0;whiteSpace=wrap;html=1;" vertex="1" parent="1">
          <mxGeometry x="570" y="440" width="90" height="47.5" as="geometry" />
        </mxCell>
        <mxCell id="qGcrRXvkYBeC9DR_U5yj-39" value="逆向履约费" style="rounded=0;whiteSpace=wrap;html=1;" vertex="1" parent="1">
          <mxGeometry x="690" y="595" width="70" height="47.5" as="geometry" />
        </mxCell>
        <mxCell id="qGcrRXvkYBeC9DR_U5yj-40" value="BI人工" style="rounded=0;whiteSpace=wrap;html=1;" vertex="1" parent="1">
          <mxGeometry x="570" y="495" width="90" height="47.5" as="geometry" />
        </mxCell>
        <mxCell id="qGcrRXvkYBeC9DR_U5yj-42" value="2b运输费" style="rounded=0;whiteSpace=wrap;html=1;" vertex="1" parent="1">
          <mxGeometry x="690" y="645.5" width="70" height="47.5" as="geometry" />
        </mxCell>
        <mxCell id="qGcrRXvkYBeC9DR_U5yj-43" value="。。。" style="rounded=0;whiteSpace=wrap;html=1;" vertex="1" parent="1">
          <mxGeometry x="369" y="670" width="90" height="47.5" as="geometry" />
        </mxCell>
        <mxCell id="qGcrRXvkYBeC9DR_U5yj-44" value="业务保险费" style="rounded=0;whiteSpace=wrap;html=1;" vertex="1" parent="1">
          <mxGeometry x="670" y="440" width="90" height="47.5" as="geometry" />
        </mxCell>
      </root>
    </mxGraphModel>
  </diagram>
</mxfile>
